<mxfile host="Electron" agent="Mozilla/5.0 (Macintosh; Intel Mac OS X 10_15_7) AppleWebKit/537.36 (KHTML, like Gecko) draw.io/26.2.15 Chrome/134.0.6998.205 Electron/35.2.1 Safari/537.36" version="26.2.15">
  <diagram id="prtHgNgQTEPvFCAcTncT" name="Page-1">
    <mxGraphModel dx="2952" dy="2323" grid="1" gridSize="10" guides="1" tooltips="1" connect="1" arrows="1" fold="1" page="1" pageScale="1" pageWidth="1169" pageHeight="827" math="0" shadow="0">
      <root>
        <mxCell id="0" />
        <mxCell id="1" parent="0" />
        <mxCell id="6fvViyOQmtaXlFOfMAqq-2" value="" style="rounded=0;whiteSpace=wrap;html=1;fillColor=#f5f5f5;fontColor=#333333;strokeColor=#666666;movable=1;resizable=1;rotatable=1;deletable=1;editable=1;locked=0;connectable=1;" parent="1" vertex="1">
          <mxGeometry x="3159.5" y="-670" width="430" height="250" as="geometry" />
        </mxCell>
        <mxCell id="6fvViyOQmtaXlFOfMAqq-3" value="" style="rounded=0;whiteSpace=wrap;html=1;fillColor=#f5f5f5;fontColor=#333333;strokeColor=#666666;movable=1;resizable=1;rotatable=1;deletable=1;editable=1;locked=0;connectable=1;" parent="1" vertex="1">
          <mxGeometry x="3159.5" y="-420" width="430" height="330" as="geometry" />
        </mxCell>
        <mxCell id="6fvViyOQmtaXlFOfMAqq-4" value="" style="rounded=0;whiteSpace=wrap;html=1;fillColor=#f5f5f5;fontColor=#333333;strokeColor=#666666;movable=1;resizable=1;rotatable=1;deletable=1;editable=1;locked=0;connectable=1;" parent="1" vertex="1">
          <mxGeometry x="3159.5" y="-90" width="430" height="340" as="geometry" />
        </mxCell>
        <mxCell id="6fvViyOQmtaXlFOfMAqq-5" value="" style="rounded=0;whiteSpace=wrap;html=1;fillColor=#f5f5f5;fontColor=#333333;strokeColor=#666666;movable=1;resizable=1;rotatable=1;deletable=1;editable=1;locked=0;connectable=1;" parent="1" vertex="1">
          <mxGeometry x="3159.5" y="250" width="430" height="190" as="geometry" />
        </mxCell>
        <mxCell id="6fvViyOQmtaXlFOfMAqq-6" value="" style="rounded=0;whiteSpace=wrap;html=1;fillColor=#f5f5f5;fontColor=#333333;strokeColor=#666666;movable=1;resizable=1;rotatable=1;deletable=1;editable=1;locked=0;connectable=1;" parent="1" vertex="1">
          <mxGeometry x="3159.5" y="440" width="430" height="330" as="geometry" />
        </mxCell>
        <mxCell id="6fvViyOQmtaXlFOfMAqq-7" value="" style="rounded=0;whiteSpace=wrap;html=1;fillColor=#f5f5f5;fontColor=#333333;strokeColor=#666666;movable=1;resizable=1;rotatable=1;deletable=1;editable=1;locked=0;connectable=1;" parent="1" vertex="1">
          <mxGeometry x="3159.5" y="770" width="430" height="269" as="geometry" />
        </mxCell>
        <mxCell id="IgVnPN9NRSkrWdJgGA2A-27" value="PI 29&#xa;Ends: March 2026" style="rounded=0;fillColor=#3aadbc;movable=1;resizable=1;rotatable=1;deletable=1;editable=1;locked=0;connectable=1;fontColor=#ffffff;fontStyle=1;fontSize=16;" parent="1" vertex="1">
          <mxGeometry x="2729.5" y="-730" width="430" height="60" as="geometry" />
        </mxCell>
        <mxCell id="IgVnPN9NRSkrWdJgGA2A-22" value="" style="rounded=0;whiteSpace=wrap;html=1;fillColor=#f5f5f5;fontColor=#333333;strokeColor=#666666;movable=1;resizable=1;rotatable=1;deletable=1;editable=1;locked=0;connectable=1;" parent="1" vertex="1">
          <mxGeometry x="2729.5" y="-670" width="430" height="250" as="geometry" />
        </mxCell>
        <mxCell id="IgVnPN9NRSkrWdJgGA2A-23" value="" style="rounded=0;whiteSpace=wrap;html=1;fillColor=#f5f5f5;fontColor=#333333;strokeColor=#666666;movable=1;resizable=1;rotatable=1;deletable=1;editable=1;locked=0;connectable=1;" parent="1" vertex="1">
          <mxGeometry x="2729.5" y="-420" width="430" height="330" as="geometry" />
        </mxCell>
        <mxCell id="IgVnPN9NRSkrWdJgGA2A-24" value="" style="rounded=0;whiteSpace=wrap;html=1;fillColor=#f5f5f5;fontColor=#333333;strokeColor=#666666;movable=1;resizable=1;rotatable=1;deletable=1;editable=1;locked=0;connectable=1;" parent="1" vertex="1">
          <mxGeometry x="2729.5" y="-90" width="430" height="340" as="geometry" />
        </mxCell>
        <mxCell id="IgVnPN9NRSkrWdJgGA2A-25" value="" style="rounded=0;whiteSpace=wrap;html=1;fillColor=#f5f5f5;fontColor=#333333;strokeColor=#666666;movable=1;resizable=1;rotatable=1;deletable=1;editable=1;locked=0;connectable=1;" parent="1" vertex="1">
          <mxGeometry x="2729.5" y="250" width="430" height="190" as="geometry" />
        </mxCell>
        <mxCell id="IgVnPN9NRSkrWdJgGA2A-26" value="" style="rounded=0;whiteSpace=wrap;html=1;fillColor=#f5f5f5;fontColor=#333333;strokeColor=#666666;movable=1;resizable=1;rotatable=1;deletable=1;editable=1;locked=0;connectable=1;" parent="1" vertex="1">
          <mxGeometry x="2729.5" y="440" width="430" height="330" as="geometry" />
        </mxCell>
        <mxCell id="JybqgrPGp8Xl5-uRk0mp-5" value="" style="rounded=0;whiteSpace=wrap;html=1;fillColor=#f5f5f5;fontColor=#333333;strokeColor=#666666;movable=1;resizable=1;rotatable=1;deletable=1;editable=1;locked=0;connectable=1;" parent="1" vertex="1">
          <mxGeometry x="2729.5" y="770" width="430" height="269" as="geometry" />
        </mxCell>
        <mxCell id="MKTJrdsKVcAg57BzzOYs-5" value="" style="rounded=0;whiteSpace=wrap;html=1;fillColor=#E6E6E6;fontColor=#333333;strokeColor=#666666;movable=1;resizable=1;rotatable=1;deletable=1;editable=1;locked=0;connectable=1;" parent="1" vertex="1">
          <mxGeometry x="1260" y="440" width="970" height="330" as="geometry" />
        </mxCell>
        <mxCell id="IgVnPN9NRSkrWdJgGA2A-52" value="Pillar 1:&lt;br style=&quot;border-color: var(--border-color);&quot;&gt;&lt;span style=&quot;&quot;&gt;Make Adoption&lt;/span&gt;&lt;br style=&quot;border-color: var(--border-color);&quot;&gt;&lt;span style=&quot;&quot;&gt;Easier&lt;/span&gt;" style="rounded=0;whiteSpace=wrap;html=1;fontSize=18;fontStyle=1;startSize=100;horizontal=0;fontColor=#F14725;movable=1;resizable=1;rotatable=1;deletable=1;editable=1;locked=0;connectable=1;" parent="1" vertex="1">
          <mxGeometry x="819.5" y="-420" width="100" height="330" as="geometry" />
        </mxCell>
        <mxCell id="V1w6IO33_B5uVDaUKKrJ-2" value="" style="rounded=0;whiteSpace=wrap;html=1;fillColor=#E6E6E6;fontColor=#333333;strokeColor=#666666;movable=1;resizable=1;rotatable=1;deletable=1;editable=1;locked=0;connectable=1;" parent="1" vertex="1">
          <mxGeometry x="1260.5" y="-670" width="969.5" height="250" as="geometry" />
        </mxCell>
        <mxCell id="V1w6IO33_B5uVDaUKKrJ-5" value="" style="rounded=0;whiteSpace=wrap;html=1;fillColor=#E6E6E6;fontColor=#333333;strokeColor=#666666;movable=1;resizable=1;rotatable=1;deletable=1;editable=1;locked=0;connectable=1;" parent="1" vertex="1">
          <mxGeometry x="1260.5" y="250" width="969.5" height="190" as="geometry" />
        </mxCell>
        <mxCell id="V1w6IO33_B5uVDaUKKrJ-7" value="" style="rounded=0;whiteSpace=wrap;html=1;fillColor=#E6E6E6;fontColor=#333333;strokeColor=#666666;movable=1;resizable=1;rotatable=1;deletable=1;editable=1;locked=0;connectable=1;" parent="1" vertex="1">
          <mxGeometry x="1260" y="770" width="969.5" height="269" as="geometry" />
        </mxCell>
        <mxCell id="V1w6IO33_B5uVDaUKKrJ-3" value="" style="rounded=0;whiteSpace=wrap;html=1;fillColor=#E6E6E6;fontColor=#333333;strokeColor=#666666;movable=1;resizable=1;rotatable=1;deletable=1;editable=1;locked=0;connectable=1;" parent="1" vertex="1">
          <mxGeometry x="1260.5" y="-420" width="969.5" height="330" as="geometry" />
        </mxCell>
        <mxCell id="V1w6IO33_B5uVDaUKKrJ-4" value="" style="rounded=0;whiteSpace=wrap;html=1;fillColor=#E6E6E6;fontColor=#333333;strokeColor=#666666;movable=1;resizable=1;rotatable=1;deletable=1;editable=1;locked=0;connectable=1;" parent="1" vertex="1">
          <mxGeometry x="1260.5" y="-90" width="969.5" height="340" as="geometry" />
        </mxCell>
        <mxCell id="Wy1Aq7sCZCRpyC4d_T1i-2" value="" style="rounded=0;whiteSpace=wrap;html=1;fillColor=#f5f5f5;fontColor=#333333;strokeColor=#666666;movable=1;resizable=1;rotatable=1;deletable=1;editable=1;locked=0;connectable=1;" parent="1" vertex="1">
          <mxGeometry x="2230" y="-670" width="499.5" height="250" as="geometry" />
        </mxCell>
        <mxCell id="Wy1Aq7sCZCRpyC4d_T1i-3" value="" style="rounded=0;whiteSpace=wrap;html=1;fillColor=#f5f5f5;fontColor=#333333;strokeColor=#666666;movable=1;resizable=1;rotatable=1;deletable=1;editable=1;locked=0;connectable=1;" parent="1" vertex="1">
          <mxGeometry x="2230" y="-420" width="499.5" height="330" as="geometry" />
        </mxCell>
        <mxCell id="Wy1Aq7sCZCRpyC4d_T1i-4" value="" style="rounded=0;whiteSpace=wrap;html=1;fillColor=#f5f5f5;fontColor=#333333;strokeColor=#666666;movable=1;resizable=1;rotatable=1;deletable=1;editable=1;locked=0;connectable=1;" parent="1" vertex="1">
          <mxGeometry x="2230" y="-90" width="499.5" height="340" as="geometry" />
        </mxCell>
        <mxCell id="Wy1Aq7sCZCRpyC4d_T1i-5" value="" style="rounded=0;whiteSpace=wrap;html=1;fillColor=#f5f5f5;fontColor=#333333;strokeColor=#666666;movable=1;resizable=1;rotatable=1;deletable=1;editable=1;locked=0;connectable=1;" parent="1" vertex="1">
          <mxGeometry x="2230" y="250" width="499.5" height="190" as="geometry" />
        </mxCell>
        <mxCell id="Wy1Aq7sCZCRpyC4d_T1i-6" value="" style="rounded=0;whiteSpace=wrap;html=1;fillColor=#f5f5f5;fontColor=#333333;strokeColor=#666666;movable=1;resizable=1;rotatable=1;deletable=1;editable=1;locked=0;connectable=1;" parent="1" vertex="1">
          <mxGeometry x="2230" y="440" width="499.5" height="330" as="geometry" />
        </mxCell>
        <mxCell id="Wy1Aq7sCZCRpyC4d_T1i-7" value="" style="rounded=0;whiteSpace=wrap;html=1;fillColor=#f5f5f5;fontColor=#333333;strokeColor=#666666;movable=1;resizable=1;rotatable=1;deletable=1;editable=1;locked=0;connectable=1;" parent="1" vertex="1">
          <mxGeometry x="2229.5" y="770" width="499.5" height="269" as="geometry" />
        </mxCell>
        <mxCell id="IgVnPN9NRSkrWdJgGA2A-30" value="" style="rounded=0;whiteSpace=wrap;html=1;fillColor=light-dark(#f5f5f5, #131213);fontColor=#333333;strokeColor=#666666;movable=1;resizable=1;rotatable=1;deletable=1;editable=1;locked=0;connectable=1;" parent="1" vertex="1">
          <mxGeometry x="920" y="-670" width="340" height="250" as="geometry" />
        </mxCell>
        <mxCell id="IgVnPN9NRSkrWdJgGA2A-43" value="Mojaloop Releases" style="rounded=0;whiteSpace=wrap;html=1;fontSize=18;fontStyle=1;startSize=100;horizontal=0;fontColor=#2D9BF0;movable=1;resizable=1;rotatable=1;deletable=1;editable=1;locked=0;connectable=1;" parent="1" vertex="1">
          <mxGeometry x="819.5" y="-670" width="100" height="250" as="geometry" />
        </mxCell>
        <mxCell id="IgVnPN9NRSkrWdJgGA2A-58" value="Foundation:&lt;br style=&quot;border-color: var(--border-color);&quot;&gt;&lt;span style=&quot;&quot;&gt;Quality Product&lt;/span&gt;" style="rounded=0;whiteSpace=wrap;html=1;fontSize=18;fontStyle=1;startSize=100;horizontal=0;fontColor=#F16E81;movable=1;resizable=1;rotatable=1;deletable=1;editable=1;locked=0;connectable=1;" parent="1" vertex="1">
          <mxGeometry x="819.5" y="440" width="100" height="330" as="geometry" />
        </mxCell>
        <mxCell id="IgVnPN9NRSkrWdJgGA2A-34" value="" style="rounded=0;whiteSpace=wrap;html=1;fillColor=light-dark(#f5f5f5, #131213);fontColor=#333333;strokeColor=#666666;movable=1;resizable=1;rotatable=1;deletable=1;editable=1;locked=0;connectable=1;" parent="1" vertex="1">
          <mxGeometry x="920" y="440" width="340" height="330" as="geometry" />
        </mxCell>
        <mxCell id="IgVnPN9NRSkrWdJgGA2A-56" value="Pillar 3:&lt;br style=&quot;border-color: var(--border-color);&quot;&gt;&lt;span style=&quot;&quot;&gt;Connect to Other Systems&lt;/span&gt;" style="rounded=0;whiteSpace=wrap;html=1;fontSize=18;fontStyle=1;startSize=100;horizontal=0;fontColor=#8FD14F;movable=1;resizable=1;rotatable=1;deletable=1;editable=1;locked=0;connectable=1;" parent="1" vertex="1">
          <mxGeometry x="819.5" y="250" width="100" height="190" as="geometry" />
        </mxCell>
        <mxCell id="IgVnPN9NRSkrWdJgGA2A-33" value="" style="rounded=0;whiteSpace=wrap;html=1;fillColor=light-dark(#f5f5f5, #131213);fontColor=#333333;strokeColor=#666666;movable=1;resizable=1;rotatable=1;deletable=1;editable=1;locked=0;connectable=1;" parent="1" vertex="1">
          <mxGeometry x="920" y="250" width="340" height="190" as="geometry" />
        </mxCell>
        <mxCell id="JybqgrPGp8Xl5-uRk0mp-1" value="&lt;font color=&quot;#0000cc&quot;&gt;Strategic Workstreams&lt;/font&gt;" style="rounded=0;whiteSpace=wrap;html=1;fontSize=18;fontStyle=1;startSize=100;horizontal=0;fontColor=#F16E81;movable=1;resizable=1;rotatable=1;deletable=1;editable=1;locked=0;connectable=1;" parent="1" vertex="1">
          <mxGeometry x="819.5" y="770" width="100" height="269" as="geometry" />
        </mxCell>
        <mxCell id="JybqgrPGp8Xl5-uRk0mp-6" value="" style="rounded=0;whiteSpace=wrap;html=1;fillColor=light-dark(#f5f5f5, #131213);fontColor=#333333;strokeColor=#666666;movable=1;resizable=1;rotatable=1;deletable=1;editable=1;locked=0;connectable=1;container=0;" parent="1" vertex="1">
          <mxGeometry x="919" y="770" width="340.5" height="269" as="geometry" />
        </mxCell>
        <mxCell id="IgVnPN9NRSkrWdJgGA2A-31" value="" style="rounded=0;whiteSpace=wrap;html=1;fillColor=light-dark(#f5f5f5, #131213);fontColor=#333333;strokeColor=#666666;movable=1;resizable=1;rotatable=1;deletable=1;editable=1;locked=0;connectable=1;" parent="1" vertex="1">
          <mxGeometry x="920" y="-420" width="340" height="330" as="geometry" />
        </mxCell>
        <mxCell id="IgVnPN9NRSkrWdJgGA2A-32" value="" style="rounded=0;whiteSpace=wrap;html=1;fillColor=light-dark(#f5f5f5, #131213);fontColor=#333333;strokeColor=#666666;movable=1;resizable=1;rotatable=1;deletable=1;editable=1;locked=0;connectable=1;" parent="1" vertex="1">
          <mxGeometry x="920" y="-90" width="340" height="340" as="geometry" />
        </mxCell>
        <mxCell id="dNxyNK7c78bLwvsdeMH5-27" value="" style="edgeStyle=orthogonalEdgeStyle;rounded=0;orthogonalLoop=1;jettySize=auto;html=1;dashed=1;endArrow=none;endFill=0;" parent="1" edge="1">
          <mxGeometry relative="1" as="geometry">
            <mxPoint x="300" y="270" as="targetPoint" />
          </mxGeometry>
        </mxCell>
        <mxCell id="dNxyNK7c78bLwvsdeMH5-31" style="edgeStyle=orthogonalEdgeStyle;rounded=0;orthogonalLoop=1;jettySize=auto;html=1;endArrow=classic;endFill=1;" parent="1" edge="1">
          <mxGeometry relative="1" as="geometry">
            <mxPoint x="420" y="280" as="sourcePoint" />
          </mxGeometry>
        </mxCell>
        <mxCell id="dNxyNK7c78bLwvsdeMH5-35" style="edgeStyle=orthogonalEdgeStyle;rounded=0;orthogonalLoop=1;jettySize=auto;html=1;endArrow=classic;endFill=1;" parent="1" edge="1">
          <mxGeometry relative="1" as="geometry">
            <mxPoint x="690" y="460" as="targetPoint" />
          </mxGeometry>
        </mxCell>
        <mxCell id="dNxyNK7c78bLwvsdeMH5-38" style="edgeStyle=orthogonalEdgeStyle;rounded=0;orthogonalLoop=1;jettySize=auto;html=1;endArrow=classic;endFill=1;" parent="1" edge="1">
          <mxGeometry relative="1" as="geometry">
            <Array as="points">
              <mxPoint x="300" y="460" />
              <mxPoint x="520" y="460" />
            </Array>
            <mxPoint x="520" y="430" as="targetPoint" />
          </mxGeometry>
        </mxCell>
        <mxCell id="dNxyNK7c78bLwvsdeMH5-25" value="" style="edgeStyle=orthogonalEdgeStyle;rounded=0;orthogonalLoop=1;jettySize=auto;html=1;" parent="1" edge="1">
          <mxGeometry relative="1" as="geometry">
            <mxPoint x="260" y="180" as="targetPoint" />
          </mxGeometry>
        </mxCell>
        <mxCell id="dNxyNK7c78bLwvsdeMH5-33" value="" style="edgeStyle=orthogonalEdgeStyle;rounded=0;orthogonalLoop=1;jettySize=auto;html=1;endArrow=classic;endFill=1;" parent="1" edge="1">
          <mxGeometry relative="1" as="geometry">
            <mxPoint x="460" y="180" as="sourcePoint" />
          </mxGeometry>
        </mxCell>
        <mxCell id="dNxyNK7c78bLwvsdeMH5-37" value="" style="edgeStyle=orthogonalEdgeStyle;rounded=0;orthogonalLoop=1;jettySize=auto;html=1;endArrow=classic;endFill=1;" parent="1" edge="1">
          <mxGeometry relative="1" as="geometry">
            <mxPoint x="650" y="490" as="sourcePoint" />
          </mxGeometry>
        </mxCell>
        <mxCell id="dNxyNK7c78bLwvsdeMH5-29" value="" style="edgeStyle=orthogonalEdgeStyle;rounded=0;orthogonalLoop=1;jettySize=auto;html=1;endArrow=classic;endFill=1;" parent="1" edge="1">
          <mxGeometry relative="1" as="geometry">
            <mxPoint x="400" y="260" as="targetPoint" />
          </mxGeometry>
        </mxCell>
        <mxCell id="IgVnPN9NRSkrWdJgGA2A-89" value="Mojaloop&#xa;V18.0.0" style="verticalLabelPosition=middle;verticalAlign=middle;shape=offPageConnector;rounded=1;size=0.5;fillColor=#2D9BF0;labelPosition=center;align=center;spacingBottom=13;fontColor=#FFFFFF;fontStyle=1;fontSize=17;movable=1;resizable=1;rotatable=1;deletable=1;editable=1;locked=0;connectable=1;" parent="1" vertex="1">
          <mxGeometry x="2186.44" y="-660" width="90" height="100" as="geometry" />
        </mxCell>
        <mxCell id="IgVnPN9NRSkrWdJgGA2A-54" value="&lt;font color=&quot;#eea213&quot;&gt;Pillar 2:&lt;br style=&quot;border-color: var(--border-color);&quot;&gt;Achieve Scale&lt;/font&gt;" style="rounded=0;whiteSpace=wrap;html=1;fontSize=18;fontStyle=1;startSize=100;horizontal=0;fontColor=#F14725;movable=1;resizable=1;rotatable=1;deletable=1;editable=1;locked=0;connectable=1;" parent="1" vertex="1">
          <mxGeometry x="819.5" y="-90" width="100" height="340" as="geometry" />
        </mxCell>
        <mxCell id="myLwM58ghnlwXmR5rfqZ-15" value="&lt;b&gt;Core:&lt;/b&gt;&lt;div&gt;First TigerBeetle integration, Settlement refinement,&lt;/div&gt;&lt;div&gt;New FX functionality&lt;br&gt;&lt;div&gt;&lt;b style=&quot;background-color: initial; color: light-dark(rgb(0, 0, 0), rgb(255, 255, 255));&quot;&gt;Additional Features:&amp;nbsp;&lt;/b&gt;&lt;br&gt;&lt;/div&gt;&lt;div&gt;&lt;span style=&quot;background-color: initial;&quot;&gt;Payments addressing (LEIs)&lt;/span&gt;&lt;/div&gt;&lt;/div&gt;&lt;div&gt;&lt;span style=&quot;background-color: initial;&quot;&gt;Dispute Management Platform&lt;/span&gt;&lt;/div&gt;" style="rounded=0;whiteSpace=wrap;html=1;fontSize=16;movable=1;resizable=1;rotatable=1;deletable=1;editable=1;locked=0;connectable=1;" parent="1" vertex="1">
          <mxGeometry x="2117.22" y="-582" width="225" height="142" as="geometry" />
        </mxCell>
        <mxCell id="rWjNOIkeKGWhdlIpbKfT-1" value="Mojaloop&#xa;V17.0.0" style="verticalLabelPosition=middle;verticalAlign=middle;shape=offPageConnector;rounded=1;size=0.5;fillColor=#2D9BF0;labelPosition=center;align=center;spacingBottom=13;fontColor=#FFFFFF;fontStyle=1;fontSize=17;movable=1;resizable=1;rotatable=1;deletable=1;editable=1;locked=0;connectable=1;" parent="1" vertex="1">
          <mxGeometry x="1215.08" y="-660" width="90" height="100" as="geometry" />
        </mxCell>
        <mxCell id="rWjNOIkeKGWhdlIpbKfT-3" value="&lt;b&gt;Core:&lt;/b&gt;&lt;div&gt;Support for FX and Interscheme,ISO 20022,&amp;nbsp;&lt;span style=&quot;background-color: initial;&quot;&gt;performance enhancements,&amp;nbsp; maintenance fixes&lt;/span&gt;&lt;/div&gt;&lt;div&gt;&lt;b&gt;Additional Features:&amp;nbsp;&lt;/b&gt;&lt;/div&gt;&lt;div&gt;SBOM integration into CI, On Premises Support, Merchant Payments and G2P Support&lt;span style=&quot;caret-color: rgb(33, 33, 33); color: rgb(33, 33, 33); font-family: Calibri, sans-serif; font-size: 16px; text-align: start;&quot;&gt;&lt;/span&gt;&lt;/div&gt;" style="rounded=0;whiteSpace=wrap;html=1;fontSize=16;movable=1;resizable=1;rotatable=1;deletable=1;editable=1;locked=0;connectable=1;" parent="1" vertex="1">
          <mxGeometry x="1084" y="-582" width="361.34" height="150" as="geometry" />
        </mxCell>
        <mxCell id="myLwM58ghnlwXmR5rfqZ-20" value="&lt;font style=&quot;font-size: 14px;&quot;&gt;&lt;b style=&quot;font-size: 14px;&quot;&gt;&lt;br&gt;&lt;/b&gt;&lt;/font&gt;" style="rounded=1;whiteSpace=wrap;html=1;fillColor=#EED78A;fontSize=14;fontColor=#FFFFFF;movable=1;resizable=1;rotatable=1;deletable=1;editable=1;locked=0;connectable=1;" parent="1" vertex="1">
          <mxGeometry x="1222.22" y="-8" width="895" height="40.78" as="geometry" />
        </mxCell>
        <mxCell id="rWjNOIkeKGWhdlIpbKfT-11" value="&lt;font style=&quot;font-size: 14px;&quot;&gt;&lt;b style=&quot;font-size: 14px;&quot;&gt;PISP V2.0 (refactoring at ITK and Hub, adding support for Bulk)&lt;br&gt;&lt;/b&gt;&lt;/font&gt;" style="rounded=1;whiteSpace=wrap;html=1;fillColor=#EEA213;fontSize=14;fontColor=#FFFFFF;movable=1;resizable=1;rotatable=1;deletable=1;editable=1;locked=0;connectable=1;" parent="1" vertex="1">
          <mxGeometry x="930" y="-8" width="890" height="40.78" as="geometry" />
        </mxCell>
        <mxCell id="myLwM58ghnlwXmR5rfqZ-21" value="&lt;font style=&quot;font-size: 14px;&quot;&gt;&lt;b style=&quot;font-size: 14px;&quot;&gt;&lt;br&gt;&lt;/b&gt;&lt;/font&gt;" style="rounded=1;whiteSpace=wrap;html=1;fillColor=#EED78A;fontSize=14;fontColor=#FFFFFF;movable=1;resizable=1;rotatable=1;deletable=1;editable=1;locked=0;connectable=1;" parent="1" vertex="1">
          <mxGeometry x="1070" y="50" width="1330" height="40.78" as="geometry" />
        </mxCell>
        <mxCell id="myLwM58ghnlwXmR5rfqZ-34" value="&lt;font style=&quot;font-size: 14px;&quot;&gt;&lt;b style=&quot;font-size: 14px;&quot;&gt;&lt;br style=&quot;font-size: 14px;&quot;&gt;&lt;/b&gt;&lt;/font&gt;" style="rounded=1;whiteSpace=wrap;html=1;fillColor=#DDFFBF;fontSize=14;fontColor=#FFFFFF;movable=1;resizable=1;rotatable=1;deletable=1;editable=1;locked=0;connectable=1;" parent="1" vertex="1">
          <mxGeometry x="1360.5" y="300" width="732.37" height="40" as="geometry" />
        </mxCell>
        <mxCell id="tU-XUtHsG_G0OqwH3F7m-2" value="" style="group;movable=1;resizable=1;rotatable=1;deletable=1;editable=1;locked=0;connectable=1;" parent="1" vertex="1" connectable="0">
          <mxGeometry x="920" y="-820" width="1518.5" height="70" as="geometry" />
        </mxCell>
        <mxCell id="IgVnPN9NRSkrWdJgGA2A-110" value="&lt;font style=&quot;font-size: 36px;&quot;&gt;Mojaloop Roadmap, as at 8th May 2025&lt;/font&gt;&lt;div&gt;&lt;br&gt;&lt;/div&gt;" style="text;html=1;strokeColor=none;fillColor=none;align=left;verticalAlign=middle;whiteSpace=wrap;rounded=0;fontSize=24;fontStyle=1;movable=1;resizable=1;rotatable=1;deletable=1;editable=1;locked=0;connectable=1;" parent="tU-XUtHsG_G0OqwH3F7m-2" vertex="1">
          <mxGeometry y="20" width="800" height="50" as="geometry" />
        </mxCell>
        <mxCell id="tU-XUtHsG_G0OqwH3F7m-1" value="" style="group;movable=1;resizable=1;rotatable=1;deletable=1;editable=1;locked=0;connectable=1;" parent="tU-XUtHsG_G0OqwH3F7m-2" vertex="1" connectable="0">
          <mxGeometry x="880" width="740" height="70" as="geometry" />
        </mxCell>
        <mxCell id="myLwM58ghnlwXmR5rfqZ-24" value="" style="rounded=0;whiteSpace=wrap;html=1;fillColor=#f5f5f5;fontColor=#333333;strokeColor=#666666;movable=1;resizable=1;rotatable=1;deletable=1;editable=1;locked=0;connectable=1;" parent="tU-XUtHsG_G0OqwH3F7m-1" vertex="1">
          <mxGeometry width="740" height="70" as="geometry" />
        </mxCell>
        <mxCell id="myLwM58ghnlwXmR5rfqZ-25" value="Key" style="text;html=1;strokeColor=none;fillColor=none;align=left;verticalAlign=middle;whiteSpace=wrap;rounded=0;fontSize=24;fontStyle=1;movable=1;resizable=1;rotatable=1;deletable=1;editable=1;locked=0;connectable=1;" parent="tU-XUtHsG_G0OqwH3F7m-1" vertex="1">
          <mxGeometry x="10.5" y="10" width="66" height="20" as="geometry" />
        </mxCell>
        <mxCell id="myLwM58ghnlwXmR5rfqZ-32" value="" style="group;movable=1;resizable=1;rotatable=1;deletable=1;editable=1;locked=0;connectable=1;" parent="tU-XUtHsG_G0OqwH3F7m-1" vertex="1" connectable="0">
          <mxGeometry x="90" y="10" width="600" height="40" as="geometry" />
        </mxCell>
        <mxCell id="myLwM58ghnlwXmR5rfqZ-31" value="&lt;font style=&quot;font-size: 16px;&quot;&gt;&lt;b style=&quot;font-size: 16px;&quot;&gt;Production-Ready&lt;br style=&quot;font-size: 16px;&quot;&gt;&lt;/b&gt;&lt;/font&gt;" style="rounded=1;whiteSpace=wrap;html=1;fillColor=#DDFFBF;fontSize=16;fontColor=#000000;align=right;spacingRight=50;movable=1;resizable=1;rotatable=1;deletable=1;editable=1;locked=0;connectable=1;" parent="myLwM58ghnlwXmR5rfqZ-32" vertex="1">
          <mxGeometry x="230" width="370" height="40" as="geometry" />
        </mxCell>
        <mxCell id="myLwM58ghnlwXmR5rfqZ-30" value="&lt;font style=&quot;font-size: 16px;&quot;&gt;&lt;b style=&quot;font-size: 16px;&quot;&gt;PoC/Pilot-Ready&lt;br style=&quot;font-size: 16px;&quot;&gt;&lt;/b&gt;&lt;/font&gt;" style="rounded=1;whiteSpace=wrap;html=1;fillColor=#8FD14F;fontSize=16;fontColor=#FFFFFF;movable=1;resizable=1;rotatable=1;deletable=1;editable=1;locked=0;connectable=1;" parent="myLwM58ghnlwXmR5rfqZ-32" vertex="1">
          <mxGeometry width="390" height="40" as="geometry" />
        </mxCell>
        <mxCell id="IgVnPN9NRSkrWdJgGA2A-35" value="PI 26&#xa;Ended: March 2025" style="rounded=0;fillColor=#3aadbc;container=0;movable=1;resizable=1;rotatable=1;deletable=1;editable=1;locked=0;connectable=1;fontColor=#ffffff;fontStyle=1;fontSize=22;" parent="1" vertex="1">
          <mxGeometry x="920" y="-730" width="340" height="60" as="geometry" />
        </mxCell>
        <mxCell id="V1w6IO33_B5uVDaUKKrJ-1" value="PI 27&#xa;Ends: July 2025" style="rounded=0;fillColor=#3aadbc;container=0;movable=1;resizable=1;rotatable=1;deletable=1;editable=1;locked=0;connectable=1;fontColor=#ffffff;fontStyle=1;fontSize=16;" parent="1" vertex="1">
          <mxGeometry x="1260.5" y="-730" width="969.5" height="60" as="geometry" />
        </mxCell>
        <mxCell id="Wy1Aq7sCZCRpyC4d_T1i-1" value="PI 28&#xa;Ends: November 2025" style="rounded=0;fillColor=#3aadbc;container=0;movable=1;resizable=1;rotatable=1;deletable=1;editable=1;locked=0;connectable=1;fontColor=#ffffff;fontStyle=1;fontSize=16;" parent="1" vertex="1">
          <mxGeometry x="2230" y="-730" width="499.5" height="60" as="geometry" />
        </mxCell>
        <mxCell id="tMwMbBkbtTwEdhl-d-lQ-4" value="&lt;font style=&quot;font-size: 14px;&quot;&gt;&lt;b style=&quot;font-size: 14px;&quot;&gt;&lt;br&gt;&lt;/b&gt;&lt;/font&gt;" style="rounded=1;whiteSpace=wrap;html=1;fillColor=#FFCCCC;fontSize=14;fillStyle=auto;fontColor=#FFFFFF;glass=0;shadow=0;textShadow=0;movable=1;resizable=1;rotatable=1;deletable=1;editable=1;locked=0;connectable=1;" parent="1" vertex="1">
          <mxGeometry x="1600" y="-310" width="590" height="40" as="geometry" />
        </mxCell>
        <mxCell id="tMwMbBkbtTwEdhl-d-lQ-3" value="&lt;font style=&quot;font-size: 14px;&quot;&gt;&lt;b style=&quot;font-size: 14px;&quot;&gt;Participation Tools for Fintechs&lt;br&gt;&lt;/b&gt;&lt;/font&gt;" style="rounded=1;whiteSpace=wrap;html=1;fillColor=#F14725;fontSize=14;fillStyle=auto;fontColor=#FFFFFF;glass=0;shadow=0;textShadow=0;movable=1;resizable=1;rotatable=1;deletable=1;editable=1;locked=0;connectable=1;" parent="1" vertex="1">
          <mxGeometry x="930" y="-310" width="990" height="40" as="geometry" />
        </mxCell>
        <mxCell id="MKTJrdsKVcAg57BzzOYs-1" value="&lt;font style=&quot;font-size: 14px;&quot;&gt;&lt;b style=&quot;font-size: 14px;&quot;&gt;Participation Tools&lt;br&gt;&lt;/b&gt;&lt;/font&gt;" style="rounded=1;whiteSpace=wrap;html=1;fillColor=#F14725;fontSize=14;fillStyle=auto;fontColor=#FFFFFF;glass=0;shadow=0;textShadow=0;movable=1;resizable=1;rotatable=1;deletable=1;editable=1;locked=0;connectable=1;" parent="1" vertex="1">
          <mxGeometry x="930" y="-379" width="2650" height="40" as="geometry" />
        </mxCell>
        <mxCell id="MKTJrdsKVcAg57BzzOYs-3" value="&lt;font style=&quot;font-size: 14px;&quot;&gt;&lt;b style=&quot;font-size: 14px;&quot;&gt;&lt;br&gt;&lt;/b&gt;&lt;/font&gt;" style="rounded=1;whiteSpace=wrap;html=1;fillColor=#eed78a;fontSize=14;fillStyle=auto;fontColor=#FFFFFF;glass=0;shadow=0;textShadow=0;movable=1;resizable=1;rotatable=1;deletable=1;editable=1;locked=0;connectable=1;" parent="1" vertex="1">
          <mxGeometry x="1620" y="120" width="842.78" height="40" as="geometry" />
        </mxCell>
        <mxCell id="MKTJrdsKVcAg57BzzOYs-4" value="&lt;font style=&quot;font-size: 14px;&quot;&gt;&lt;b style=&quot;font-size: 14px;&quot;&gt;Deployment Tools&lt;/b&gt;&lt;/font&gt;" style="rounded=1;whiteSpace=wrap;html=1;fillColor=#F14725;fontSize=14;fillStyle=auto;fontColor=#FFFFFF;glass=0;shadow=0;textShadow=0;movable=1;resizable=1;rotatable=1;deletable=1;editable=1;locked=0;connectable=1;" parent="1" vertex="1">
          <mxGeometry x="930" y="-230" width="2650" height="40" as="geometry" />
        </mxCell>
        <mxCell id="MKTJrdsKVcAg57BzzOYs-7" value="&lt;font style=&quot;font-size: 14px;&quot;&gt;&lt;b style=&quot;font-size: 14px;&quot;&gt;&lt;br&gt;&lt;/b&gt;&lt;/font&gt;" style="rounded=1;whiteSpace=wrap;html=1;fillColor=#EED78A;fontSize=14;fontColor=#FFFFFF;movable=1;resizable=1;rotatable=1;deletable=1;editable=1;locked=0;connectable=1;" parent="1" vertex="1">
          <mxGeometry x="1233" y="-70" width="977" height="40.78" as="geometry" />
        </mxCell>
        <mxCell id="MKTJrdsKVcAg57BzzOYs-6" value="&lt;font style=&quot;font-size: 14px;&quot;&gt;&lt;b style=&quot;font-size: 14px;&quot;&gt;Dispute Management&lt;br&gt;&lt;/b&gt;&lt;/font&gt;" style="rounded=1;whiteSpace=wrap;html=1;fillColor=#EEA213;fontSize=14;fontColor=#FFFFFF;movable=1;resizable=1;rotatable=1;deletable=1;editable=1;locked=0;connectable=1;" parent="1" vertex="1">
          <mxGeometry x="930" y="-70" width="1030" height="40.78" as="geometry" />
        </mxCell>
        <mxCell id="MKTJrdsKVcAg57BzzOYs-8" value="&lt;font style=&quot;font-size: 14px;&quot;&gt;&lt;b style=&quot;font-size: 14px;&quot;&gt;LEI Addressing&lt;br&gt;&lt;/b&gt;&lt;/font&gt;" style="rounded=1;whiteSpace=wrap;html=1;fillColor=#EEA213;fontSize=14;fontColor=#FFFFFF;movable=1;resizable=1;rotatable=1;deletable=1;editable=1;locked=0;connectable=1;" parent="1" vertex="1">
          <mxGeometry x="930" y="50" width="1040" height="40.78" as="geometry" />
        </mxCell>
        <mxCell id="MKTJrdsKVcAg57BzzOYs-10" value="&lt;font style=&quot;font-size: 14px;&quot;&gt;&lt;b style=&quot;font-size: 14px;&quot;&gt;ISO 20022 Refinement&lt;/b&gt;&lt;/font&gt;" style="rounded=1;whiteSpace=wrap;html=1;fillColor=#8FD14F;fontSize=14;fontColor=#FFFFFF;movable=1;resizable=1;rotatable=1;deletable=1;editable=1;locked=0;connectable=1;" parent="1" vertex="1">
          <mxGeometry x="929.9999999999998" y="300" width="830.5" height="40" as="geometry" />
        </mxCell>
        <mxCell id="MKTJrdsKVcAg57BzzOYs-14" value="Mojaloop&#xa;V19.0.0" style="verticalLabelPosition=middle;verticalAlign=middle;shape=offPageConnector;rounded=1;size=0.5;fillColor=#2D9BF0;labelPosition=center;align=center;spacingBottom=13;fontColor=#FFFFFF;fontStyle=1;fontSize=17;movable=1;resizable=1;rotatable=1;deletable=1;editable=1;locked=0;connectable=1;" parent="1" vertex="1">
          <mxGeometry x="2684.25" y="-660" width="90" height="100" as="geometry" />
        </mxCell>
        <mxCell id="MKTJrdsKVcAg57BzzOYs-15" value="&lt;b&gt;Core:&lt;/b&gt;&lt;div&gt;Refactored bulk payments&lt;b&gt;&lt;br&gt;&lt;/b&gt;&lt;div&gt;&lt;div&gt;&lt;b style=&quot;background-color: initial; color: light-dark(rgb(0, 0, 0), rgb(255, 255, 255));&quot;&gt;Additional Features:&amp;nbsp;&lt;/b&gt;&lt;br&gt;&lt;/div&gt;&lt;/div&gt;&lt;div&gt;&lt;span style=&quot;background-color: initial; color: light-dark(rgb(0, 0, 0), rgb(255, 255, 255));&quot;&gt;Performance Whitepaper,&lt;/span&gt;&lt;/div&gt;&lt;div&gt;QA Framework&lt;/div&gt;&lt;/div&gt;" style="rounded=0;whiteSpace=wrap;html=1;fontSize=16;movable=1;resizable=1;rotatable=1;deletable=1;editable=1;locked=0;connectable=1;" parent="1" vertex="1">
          <mxGeometry x="2630" y="-582" width="198.5" height="102" as="geometry" />
        </mxCell>
        <mxCell id="ME0NisAHzomEJK_o4Tcq-2" value="&lt;font style=&quot;font-size: 14px;&quot;&gt;&lt;b style=&quot;font-size: 14px;&quot;&gt;&lt;br&gt;&lt;/b&gt;&lt;/font&gt;" style="rounded=1;whiteSpace=wrap;html=1;fillColor=#FFCCCC;fontSize=14;fillStyle=auto;fontColor=#FFFFFF;glass=0;shadow=0;textShadow=0;movable=1;resizable=1;rotatable=1;deletable=1;editable=1;locked=0;connectable=1;" parent="1" vertex="1">
          <mxGeometry x="1890.1" y="490" width="579.9" height="40" as="geometry" />
        </mxCell>
        <mxCell id="IgVnPN9NRSkrWdJgGA2A-103" value="Platform Quality and Security" style="rounded=1;fillColor=#F16E81;fontSize=14;fontStyle=1;fontColor=#ffffff;movable=1;resizable=1;rotatable=1;deletable=1;editable=1;locked=0;connectable=1;" parent="1" vertex="1">
          <mxGeometry x="930" y="700" width="2640" height="40" as="geometry" />
        </mxCell>
        <mxCell id="IgVnPN9NRSkrWdJgGA2A-40" value="Core and Releases" style="rounded=1;fillColor=#F16E81;fontSize=14;fontStyle=1;fontColor=#ffffff;movable=1;resizable=1;rotatable=1;deletable=1;editable=1;locked=0;connectable=1;" parent="1" vertex="1">
          <mxGeometry x="930" y="630" width="2640" height="40" as="geometry" />
        </mxCell>
        <mxCell id="S1ja_g8u9IfPUK_eCeuM-4" value="Performance Optimisation" style="rounded=1;fillColor=#F16E81;fontSize=14;fontStyle=1;fontColor=#ffffff;whiteSpace=wrap;movable=1;resizable=1;rotatable=1;deletable=1;editable=1;locked=0;connectable=1;" parent="1" vertex="1">
          <mxGeometry x="930" y="560" width="1780" height="40" as="geometry" />
        </mxCell>
        <mxCell id="MKTJrdsKVcAg57BzzOYs-2" value="&lt;font style=&quot;font-size: 14px;&quot;&gt;&lt;b style=&quot;font-size: 14px;&quot;&gt;Refactor Bulk Payments (impact on Participation Tools)&lt;/b&gt;&lt;/font&gt;" style="rounded=1;whiteSpace=wrap;html=1;fillColor=#eea213;fontSize=14;fontColor=#FFFFFF;movable=1;resizable=1;rotatable=1;deletable=1;editable=1;locked=0;connectable=1;" parent="1" vertex="1">
          <mxGeometry x="1270" y="120" width="800" height="40" as="geometry" />
        </mxCell>
        <mxCell id="ME0NisAHzomEJK_o4Tcq-1" value="Mojaloop Evolution: Tigerbeetle and Settlement V3" style="rounded=1;fillColor=#F16E81;fontSize=14;fontColor=#ffffff;fontStyle=1;whiteSpace=wrap;movable=1;resizable=1;rotatable=1;deletable=1;editable=1;locked=0;connectable=1;" parent="1" vertex="1">
          <mxGeometry x="932.25" y="490" width="1075.75" height="40" as="geometry" />
        </mxCell>
        <mxCell id="BclRuT7VKxzQp_2wcXtP-2" value="&lt;font style=&quot;font-size: 14px;&quot;&gt;&lt;b style=&quot;font-size: 14px;&quot;&gt;&lt;br&gt;&lt;/b&gt;&lt;/font&gt;" style="rounded=1;whiteSpace=wrap;html=1;fillColor=#eed78a;fontSize=14;fillStyle=auto;fontColor=#FFFFFF;glass=0;shadow=0;textShadow=0;movable=1;resizable=1;rotatable=1;deletable=1;editable=1;locked=0;connectable=1;" parent="1" vertex="1">
          <mxGeometry x="1620" y="180" width="600" height="40" as="geometry" />
        </mxCell>
        <mxCell id="BclRuT7VKxzQp_2wcXtP-1" value="&lt;font style=&quot;font-size: 14px;&quot;&gt;&lt;b style=&quot;font-size: 14px;&quot;&gt;Foreign Exchange Refinement&lt;/b&gt;&lt;/font&gt;" style="rounded=1;whiteSpace=wrap;html=1;fillColor=#eea213;fontSize=14;fontColor=#FFFFFF;movable=1;resizable=1;rotatable=1;deletable=1;editable=1;locked=0;connectable=1;" parent="1" vertex="1">
          <mxGeometry x="1270" y="180" width="670" height="40" as="geometry" />
        </mxCell>
        <mxCell id="Wy1Aq7sCZCRpyC4d_T1i-11" value="" style="endArrow=none;html=1;rounded=0;exitX=0;exitY=0;exitDx=0;exitDy=0;entryX=1;entryY=0;entryDx=0;entryDy=0;" parent="1" source="Wy1Aq7sCZCRpyC4d_T1i-10" target="Wy1Aq7sCZCRpyC4d_T1i-10" edge="1">
          <mxGeometry width="50" height="50" relative="1" as="geometry">
            <mxPoint x="3870" y="-150" as="sourcePoint" />
            <mxPoint x="3920" y="-206.84916666666663" as="targetPoint" />
          </mxGeometry>
        </mxCell>
        <mxCell id="Wy1Aq7sCZCRpyC4d_T1i-8" value="&lt;font style=&quot;font-size: 24px;&quot;&gt;Candidate Workstreams&amp;nbsp;&lt;/font&gt;&lt;div&gt;&lt;font style=&quot;font-size: 24px;&quot;&gt;For Future Adoption&lt;/font&gt;&lt;/div&gt;" style="rounded=1;whiteSpace=wrap;html=1;arcSize=7;strokeWidth=2;verticalAlign=top;fontSize=24;fillColor=#3aadbc;fontColor=#FFFFFF;align=center;labelPosition=center;verticalLabelPosition=middle;fontStyle=1" parent="1" vertex="1">
          <mxGeometry x="3800" y="-186" width="520" height="506" as="geometry" />
        </mxCell>
        <mxCell id="Wy1Aq7sCZCRpyC4d_T1i-10" value="&lt;ol style=&quot;margin-right: 10px; margin-left: 0px;&quot;&gt;&lt;li style=&quot;&quot;&gt;&lt;span style=&quot;background-color: initial;&quot;&gt;Interconnect For PAPSS / Settlement Adapter for PAPSS&lt;/span&gt;&lt;/li&gt;&lt;li style=&quot;&quot;&gt;&lt;span style=&quot;background-color: transparent; color: light-dark(rgb(51, 51, 51), rgb(193, 193, 193));&quot;&gt;AISP extension to PISP/3PPI&lt;/span&gt;&lt;/li&gt;&lt;li style=&quot;&quot;&gt;Multiple alias resolution: Handling duplicate &quot;resolutions&quot;, managing payee preferences, allowing DFSPs or payees to manage those preferences.&lt;/li&gt;&lt;li style=&quot;&quot;&gt;Support for domestic debit schemes for P2P/R2P&lt;/li&gt;&lt;li style=&quot;&quot;&gt;G2P: Extend to other forms of digital ID, beyond MOSIP&lt;/li&gt;&lt;li style=&quot;&quot;&gt;Language and Timezone Localisation&lt;/li&gt;&lt;/ol&gt;" style="rounded=0;whiteSpace=wrap;html=1;strokeColor=#666666;align=left;fillColor=#f5f5f5;fontColor=#333333;fontSize=24;labelPosition=center;verticalLabelPosition=middle;verticalAlign=top;" parent="1" vertex="1">
          <mxGeometry x="3800" y="-110" width="520" height="400" as="geometry" />
        </mxCell>
        <mxCell id="6fvViyOQmtaXlFOfMAqq-1" value="PI 30&#xa;Ends: July 2026" style="rounded=0;fillColor=#3aadbc;movable=1;resizable=1;rotatable=1;deletable=1;editable=1;locked=0;connectable=1;fontColor=#ffffff;fontStyle=1;fontSize=16;" parent="1" vertex="1">
          <mxGeometry x="3159.5" y="-730" width="430" height="60" as="geometry" />
        </mxCell>
        <mxCell id="6fvViyOQmtaXlFOfMAqq-9" value="Mojaloop&#xa;V20.0.0" style="verticalLabelPosition=middle;verticalAlign=middle;shape=offPageConnector;rounded=1;size=0.5;fillColor=#2D9BF0;labelPosition=center;align=center;spacingBottom=13;fontColor=#FFFFFF;fontStyle=1;fontSize=17;movable=1;resizable=1;rotatable=1;deletable=1;editable=1;locked=0;connectable=1;" parent="1" vertex="1">
          <mxGeometry x="3114.25" y="-660" width="90" height="100" as="geometry" />
        </mxCell>
        <mxCell id="6fvViyOQmtaXlFOfMAqq-11" value="Mojaloop&#xa;V21.0.0" style="verticalLabelPosition=middle;verticalAlign=middle;shape=offPageConnector;rounded=1;size=0.5;fillColor=#2D9BF0;labelPosition=center;align=center;spacingBottom=13;fontColor=#FFFFFF;fontStyle=1;fontSize=17;movable=1;resizable=1;rotatable=1;deletable=1;editable=1;locked=0;connectable=1;" parent="1" vertex="1">
          <mxGeometry x="3544.25" y="-660" width="90" height="100" as="geometry" />
        </mxCell>
        <mxCell id="6fvViyOQmtaXlFOfMAqq-13" value="Mojaloop&#xa;17.1.0" style="verticalLabelPosition=middle;verticalAlign=middle;shape=offPageConnector;rounded=1;size=0.5;fillColor=#2D9BF0;labelPosition=center;align=center;spacingBottom=13;fontColor=#FFFFFF;fontStyle=1;fontSize=17;movable=1;resizable=1;rotatable=1;deletable=1;editable=1;locked=0;connectable=1;" parent="1" vertex="1">
          <mxGeometry x="1574.25" y="-663" width="90" height="100" as="geometry" />
        </mxCell>
        <mxCell id="6fvViyOQmtaXlFOfMAqq-12" value="&lt;b&gt;Core:&lt;/b&gt;&lt;div&gt;&lt;span style=&quot;background-color: initial;&quot;&gt;Node.js upgrade&lt;/span&gt;&lt;/div&gt;&lt;div&gt;&lt;div&gt;&lt;b&gt;Additional Features:&amp;nbsp;&lt;/b&gt;&lt;/div&gt;&lt;div&gt;IaC, Finance Portal upgrades&lt;/div&gt;&lt;/div&gt;" style="rounded=0;whiteSpace=wrap;html=1;fontSize=16;movable=1;resizable=1;rotatable=1;deletable=1;editable=1;locked=0;connectable=1;" parent="1" vertex="1">
          <mxGeometry x="1520" y="-585" width="198.5" height="102" as="geometry" />
        </mxCell>
        <mxCell id="6fvViyOQmtaXlFOfMAqq-8" value="&lt;b&gt;Core:&lt;/b&gt;&lt;div&gt;&lt;span style=&quot;background-color: initial;&quot;&gt;SWIFT Interconnection&lt;/span&gt;&lt;/div&gt;" style="rounded=0;whiteSpace=wrap;html=1;fontSize=16;movable=1;resizable=1;rotatable=1;deletable=1;editable=1;locked=0;connectable=1;" parent="1" vertex="1">
          <mxGeometry x="3060" y="-582" width="198.5" height="102" as="geometry" />
        </mxCell>
        <mxCell id="6fvViyOQmtaXlFOfMAqq-10" value="&lt;b&gt;Core:&lt;/b&gt;&lt;div&gt;&lt;span style=&quot;background-color: initial;&quot;&gt;TBD&lt;/span&gt;&lt;/div&gt;" style="rounded=0;whiteSpace=wrap;html=1;fontSize=16;movable=1;resizable=1;rotatable=1;deletable=1;editable=1;locked=0;connectable=1;" parent="1" vertex="1">
          <mxGeometry x="3490" y="-585" width="198.5" height="102" as="geometry" />
        </mxCell>
        <mxCell id="JybqgrPGp8Xl5-uRk0mp-8" value="Cross-Border SIG" style="rounded=1;fillColor=#0000CC;fontSize=14;movable=1;resizable=1;rotatable=1;deletable=1;editable=1;locked=0;connectable=1;fontStyle=1;fontColor=#ffffff;" parent="1" vertex="1">
          <mxGeometry x="931.75" y="800" width="2647.75" height="40" as="geometry" />
        </mxCell>
        <mxCell id="9FIC805bEXmO4QEIPQZV-1" value="Cross-Border Settlement" style="rounded=1;fillColor=#0000CC;fontSize=14;movable=1;resizable=1;rotatable=1;deletable=1;editable=1;locked=0;connectable=1;fontStyle=1;fontColor=#ffffff;" parent="1" vertex="1">
          <mxGeometry x="929.5" y="870" width="2650" height="40" as="geometry" />
        </mxCell>
        <mxCell id="MKTJrdsKVcAg57BzzOYs-11" value="ISO 20022 for Open Banking" style="rounded=1;fillColor=#0000CC;fontSize=14;movable=1;resizable=1;rotatable=1;deletable=1;editable=1;locked=0;connectable=1;fontStyle=1;fontColor=#ffffff;" parent="1" vertex="1">
          <mxGeometry x="929.5" y="940" width="2650" height="40" as="geometry" />
        </mxCell>
        <mxCell id="6fvViyOQmtaXlFOfMAqq-16" value="&lt;font style=&quot;font-size: 14px;&quot;&gt;&lt;b style=&quot;font-size: 14px;&quot;&gt;QA Framework for Adopters&lt;br&gt;&lt;/b&gt;&lt;/font&gt;" style="rounded=1;whiteSpace=wrap;html=1;fillColor=#F14725;fontSize=14;fillStyle=auto;fontColor=#FFFFFF;glass=0;shadow=0;textShadow=0;movable=1;resizable=1;rotatable=1;deletable=1;editable=1;locked=0;connectable=1;strokeWidth=1;" parent="1" vertex="1">
          <mxGeometry x="1270" y="-150" width="1450" height="40" as="geometry" />
        </mxCell>
        <mxCell id="6fvViyOQmtaXlFOfMAqq-18" value="&lt;font style=&quot;font-size: 14px;&quot;&gt;&lt;b style=&quot;font-size: 14px;&quot;&gt;&lt;br style=&quot;font-size: 14px;&quot;&gt;&lt;/b&gt;&lt;/font&gt;" style="rounded=1;whiteSpace=wrap;html=1;fillColor=#DDFFBF;fontSize=14;fontColor=#FFFFFF;movable=1;resizable=1;rotatable=1;deletable=1;editable=1;locked=0;connectable=1;dashed=1;dashPattern=8 8;strokeWidth=4;" parent="1" vertex="1">
          <mxGeometry x="2301.88" y="373.5" width="902.37" height="40" as="geometry" />
        </mxCell>
        <mxCell id="6fvViyOQmtaXlFOfMAqq-17" value="&lt;font style=&quot;font-size: 14px;&quot;&gt;&lt;b style=&quot;font-size: 14px;&quot;&gt;Tentative: SWIFT Interconnection&lt;/b&gt;&lt;/font&gt;" style="rounded=1;whiteSpace=wrap;html=1;fillColor=#8FD14F;fontSize=14;fontColor=#FFFFFF;movable=1;resizable=1;rotatable=1;deletable=1;editable=1;locked=0;connectable=1;dashed=1;dashPattern=8 8;strokeWidth=4;" parent="1" vertex="1">
          <mxGeometry x="1871.38" y="373.5" width="972.87" height="40" as="geometry" />
        </mxCell>
      </root>
    </mxGraphModel>
  </diagram>
</mxfile>
